<svg width="193" height="12" viewBox="0 0 193 12" fill="none" xmlns="http://www.w3.org/2000/svg">
<path d="M0 1.52441C9.65295 1.52441 9.65295 10.0487 19.2993 10.0487C28.9457 10.0487 28.9457 1.52441 38.5921 1.52441C48.2385 1.52441 48.2385 10.0487 57.8915 10.0487C67.5379 10.0487 67.5379 1.52441 77.1908 1.52441C86.8438 1.52441 86.8438 10.0487 96.4902 10.0487C106.143 10.0487 106.143 1.52441 115.79 1.52441C125.442 1.52441 125.442 10.0487 135.089 10.0487C144.742 10.0487 144.742 1.52441 154.388 1.52441C164.041 1.52441 164.041 10.0487 173.694 10.0487C183.347 10.0487 183.347 1.52441 193 1.52441" stroke="#10846F" stroke-width="3" stroke-miterlimit="10"/>
</svg>
